# xmcd
#
# Track frame offsets:
#	150
#	16277
#	32299
#	47853
#	65119
#	78904
#	91124
#	108996
#	125589
#	141645
#	159033
#	172827
#	187601
#	204546
#
# Disc length: 2971 seconds
# Revision: 1
# Processed by: cddbd v1.5.2PL0 Copyright (c) Steve Scherf et al.
# Submitted via: dBpowerAMP V12.0
#
DISCID=aa0b990e
DTITLE=Ward Thomas - Cartwheels
DYEAR=2016
DGENRE=Alt Folk
TTITLE0=Carry You Home
TTITLE1=Almost Easy
TTITLE2=Material
TTITLE3=Cartwheels
TTITLE4=Guilty Flowers
TTITLE5=Lose Me
TTITLE6=Good on You
TTITLE7=When It's Not Me
TTITLE8=Boomerang
TTITLE9=Dirt and Gold
TTITLE10=Where the Sky Is
TTITLE11=Proof
TTITLE12=Who I'm Not
TTITLE13=Safe
EXTD=
EXTT0=
EXTT1=
EXTT2=
EXTT3=
EXTT4=
EXTT5=
EXTT6=
EXTT7=
EXTT8=
EXTT9=
EXTT10=
EXTT11=
EXTT12=
EXTT13=
PLAYORDER=
